Coordinates
version=1
nRows=13
nColumns=34
inDegrees=yes

Units are S.I. units (second, meters, Newtons, ...)
If the header above contains a line with 'inDegrees', this indicates whether rotational values are in degrees (yes) or radians (no).

endheader
time	pelvis_tilt	pelvis_list	pelvis_rotation	pelvis_tx	pelvis_ty	pelvis_tz	hip_flexion_r	hip_adduction_r	hip_rotation_r	knee_angle_r	ankle_angle_r	subtalar_angle_r	mtp_angle_r	hip_flexion_l	hip_adduction_l	hip_rotation_l	knee_angle_l	ankle_angle_l	subtalar_angle_l	mtp_angle_l	lumbar_extension	lumbar_bending	lumbar_rotation	arm_flex_r	arm_add_r	arm_rot_r	elbow_flex_r	pro_sup_r	arm_flex_l	arm_add_l	arm_rot_l	elbow_flex_l	pro_sup_l
      1.13333330	    -38.14913868	    -52.23771649	    -60.75379905	      0.06847604	      0.57132373	     -0.06150333	      3.50283045	      0.74820874	    -22.62762837	     11.59208700	     14.24770899	      7.26498610	      0.00000000	      6.84253928	     -1.49963909	     -5.08430191	      0.00000000	     31.41577526	     13.23043642	      0.00000000	     -5.19240094	      4.24568334	     -3.82342824	      5.32205959	     -7.40216126	     18.80737725	     21.86265454	    117.12908856	      4.53897284	     -5.02837841	     19.06636184	     26.99719581	    116.48280126
      1.15000000	    -38.11161019	    -52.27203466	    -60.71562304	      0.06875171	      0.57144261	     -0.06108325	      3.48174358	      0.72593768	    -22.53437691	     11.72310995	     14.24026230	      7.28597344	      0.00000000	      6.76693692	     -1.51712979	     -5.15269637	      0.00000000	     31.45643169	     13.17078667	      0.00000000	     -5.14129075	      4.33454975	     -3.99490505	      5.11302744	     -7.52050982	     18.77745357	     21.75688787	    117.11942467	      4.40031902	     -5.08641924	     19.07530136	     26.91569813	    116.49068110
      1.16666670	    -38.01842997	    -52.29237542	    -60.72068905	      0.06931440	      0.57170893	     -0.06050567	      3.42920708	      0.67183559	    -22.46878411	     11.82920133	     14.29465530	      7.26673534	      0.00000000	      6.66668014	     -1.49702725	     -5.18123061	      0.00000000	     31.54033255	     13.12578451	      0.00000000	     -5.06215362	      4.46184880	     -4.11198263	      4.98604084	     -7.59744745	     18.72656736	     21.64599667	    117.10403557	      4.21584885	     -5.09692023	     19.10856841	     26.83189863	    116.50389581
      1.18333330	    -37.89259550	    -52.29373819	    -60.70227028	      0.07035332	      0.57236576	     -0.05965337	      3.35469126	      0.60085883	    -22.36596939	     11.97084035	     14.43239156	      7.22880853	      0.00000000	      6.50720834	     -1.45678838	     -5.17090537	      0.00000000	     31.71766469	     13.07261520	      0.00000000	     -5.00084788	      4.49520157	     -4.26105664	      4.82777314	     -7.67105092	     18.60775432	     21.43650281	    117.07019310	      3.98959746	     -5.11469465	     19.17643354	     26.74100937	    116.52889643
      1.20000000	    -37.75069691	    -52.29440821	    -60.61943018	      0.07156150	      0.57335344	     -0.05852009	      3.25644792	      0.52525549	    -22.25510981	     12.14800086	     14.57777797	      7.19059826	      0.00000000	      6.33705993	     -1.40938466	     -5.15666791	      0.00000000	     31.86382891	     13.00998592	      0.00000000	     -4.92337163	      4.48302100	     -4.40385094	      4.65265817	     -7.77374305	     18.44433045	     21.19154467	    117.02697487	      3.79395893	     -5.24903455	     19.22614085	     26.65071674	    116.55048546
      1.21666670	    -36.88952352	    -52.25525441	    -59.92287835	      0.07253582	      0.57425813	     -0.05773774	      3.04084040	     -0.00810706	    -22.06368533	     12.46350185	     15.06965515	      7.01714812	      0.00000000	      5.98395216	     -0.92703420	     -4.91359759	      0.00000000	     31.89379486	     12.84119692	      0.00000000	     -5.13701295	      3.96778098	     -4.62126186	      4.67039674	     -7.51483276	     17.17792173	     20.46418955	    116.70249008	      3.65895657	     -5.63656712	     19.40926783	     26.72220018	    116.66853586
      1.23333330	    -36.78856592	    -52.24845868	    -59.91722071	      0.07372728	      0.57560929	     -0.05635082	      2.93304945	     -0.04215876	    -22.07971736	     12.57953068	     15.11598203	      6.98153937	      0.00000000	      5.80288146	     -0.93553080	     -4.93236858	      0.00000000	     31.98057766	     12.74299722	      0.00000000	     -5.00882832	      3.97443104	     -4.72769574	      4.44774711	     -7.71998774	     17.01782746	     20.36872636	    116.66597142	      3.40887270	     -5.81390671	     19.38019618	     26.57293765	    116.67076869
      1.25000000	    -36.62086657	    -52.21157175	    -59.81433069	      0.07531272	      0.57679983	     -0.05492133	      2.77702954	     -0.12511490	    -22.05429661	     12.64321650	     15.27643981	      6.95233432	      0.00000000	      5.60926984	     -0.86760090	     -4.86122627	      0.00000000	     32.18272751	     12.60273093	      0.00000000	     -4.92155850	      3.80747723	     -4.81765935	      4.16874891	     -7.84172080	     16.69960324	     20.24328715	    116.59230952	      3.16296314	     -6.04919324	     19.22462111	     26.35885622	    116.65384606
      1.26666670	    -35.91663485	    -52.23773489	    -59.12433490	      0.07665010	      0.57755084	     -0.05420862	      2.38312117	     -0.54827406	    -22.48703711	     12.67848969	     15.63088283	      7.43391786	      0.00000000	      5.22922843	     -0.47901751	     -3.76168525	      0.00000000	     31.97929103	     11.33306804	      0.00000000	     -5.23626842	      3.41976563	     -4.94852147	      3.61365280	     -7.43951278	     12.30956988	     20.84582946	    115.76827965	      2.96063299	     -6.02705902	     16.83118370	     26.51107874	    116.51987963
      1.28333330	    -35.90972059	    -52.20768657	    -59.16381822	      0.07734440	      0.57798338	     -0.05357992	      2.35541725	     -0.55929646	    -22.47740616	     12.68015544	     15.65054238	      7.43330571	      0.00000000	      5.17850076	     -0.48147965	     -3.74684908	      0.00000000	     31.97433770	     11.32127200	      0.00000000	     -5.21636639	      3.39166541	     -4.97860991	      3.49470994	     -7.62532758	     12.26851886	     20.77808239	    115.76702434	      2.91240539	     -6.28191213	     16.76165717	     26.40359093	    116.51383381
      1.30000000	    -35.80835429	    -52.14864818	    -59.18373710	      0.07793138	      0.57903721	     -0.05260636	      2.23771666	     -0.55484344	    -22.39484661	     12.52343453	     15.72997933	      7.49112378	      0.00000000	      5.09353718	     -0.46080167	     -3.70111626	      0.00000000	     32.02441272	     11.20808287	      0.00000000	     -5.02586338	      3.20546411	     -5.01157307	      3.15469189	     -7.58765382	     12.18503467	     20.75499393	    115.77668767	      2.77151240	     -6.52162715	     16.48599056	     26.08571016	    116.48493567
      1.31666670	    -35.69565879	    -52.01013013	    -59.08017203	      0.07792594	      0.57964615	     -0.05214534	      2.15587931	     -0.57491080	    -22.20889664	     12.18571538	     15.76369292	      7.63888957	      0.00000000	      5.16252778	     -0.35986445	     -3.66813126	      0.00000000	     32.01706370	     11.02908835	      0.00000000	     -4.91117104	      3.04808556	     -5.12708234	      2.90813822	     -7.58422737	     11.99875331	     20.94506116	    115.78469565	      2.85164646	     -6.73307188	     15.90852542	     25.74005971	    116.41645434
      1.33333330	    -35.67440043	    -51.99342857	    -59.13854678	      0.07821380	      0.57993463	     -0.05201672	      2.14773715	     -0.59785640	    -22.20138328	     12.17423520	     15.75710144	      7.63668961	      0.00000000	      5.12109854	     -0.35927783	     -3.65539398	      0.00000000	     31.98365128	     11.02326243	      0.00000000	     -4.89152676	      3.02719266	     -5.20053410	      2.84120805	     -7.74678959	     11.94634940	     20.95231391	    115.78178194	      2.88720308	     -6.95661951	     15.78424123	     25.67183508	    116.40093684
